<svg width="60.000000" height="60.000000" viewBox="0 0 60 60" fill="none" xmlns="http://www.w3.org/2000/svg" xmlns:xlink="http://www.w3.org/1999/xlink">
	<desc>
			Created with Pixso.
	</desc>
	<defs>
		<clipPath id="clip141_122">
			<rect id="logo 1" width="60.000000" height="60.000000" fill="white" fill-opacity="0"/>
		</clipPath>
	</defs>
	<rect id="logo 1" width="60.000000" height="60.000000" fill="#FFFFFF" fill-opacity="0"/>
	<g clip-path="url(#clip141_122)">
		<path id="Vector" d="M26.7 22.275L26.7 10.275" stroke="#000000" stroke-opacity="1.000000" stroke-width="0.900000" stroke-linecap="round"/>
		<path id="Vector" d="M29.85 7.87498C29.85 9.61468 28.4397 11.025 26.7 11.025C24.9603 11.025 23.55 9.61468 23.55 7.87498C23.55 6.13528 24.9603 4.72498 26.7 4.72498C28.4397 4.72498 29.85 6.13528 29.85 7.87498Z" fill="#000000" fill-opacity="1.000000" fill-rule="evenodd"/>
		<path id="Vector" d="M26.7 37.725L26.7 49.725" stroke="#000000" stroke-opacity="1.000000" stroke-width="0.900000" stroke-linecap="round"/>
		<path id="Vector" d="M23.55 52.125C23.55 50.3853 24.9603 48.975 26.7 48.975C28.4397 48.975 29.85 50.3853 29.85 52.125C29.85 53.8647 28.4397 55.275 26.7 55.275C24.9603 55.275 23.55 53.8647 23.55 52.125Z" fill="#000000" fill-opacity="1.000000" fill-rule="evenodd"/>
		<path id="Vector" d="M34.425 30L46.425 30" stroke="#000000" stroke-opacity="1.000000" stroke-width="0.900000" stroke-linecap="round"/>
		<path id="Vector" d="M48.825 33.15C47.0853 33.15 45.675 31.7397 45.675 30C45.675 28.2603 47.0853 26.85 48.825 26.85C50.5647 26.85 51.975 28.2603 51.975 30C51.975 31.7397 50.5647 33.15 48.825 33.15Z" fill="#000000" fill-opacity="1.000000" fill-rule="evenodd"/>
		<path id="Vector" d="M18.975 30L6.97501 30" stroke="#000000" stroke-opacity="1.000000" stroke-width="0.900000" stroke-linecap="round"/>
		<path id="Vector" d="M4.575 26.85C6.3147 26.85 7.725 28.2603 7.725 30C7.725 31.7397 6.3147 33.15 4.575 33.15C2.8353 33.15 1.425 31.7397 1.425 30C1.425 28.2603 2.8353 26.85 4.575 26.85Z" fill="#000000" fill-opacity="1.000000" fill-rule="evenodd"/>
		<path id="Vector" d="M30.5624 36.6901L36.5624 47.0824" stroke="#000000" stroke-opacity="1.000000" stroke-width="0.900000" stroke-linecap="round"/>
		<path id="Vector" d="M35.0344 50.7358C34.1646 49.2292 34.6808 47.3027 36.1874 46.4328C37.694 45.563 39.6206 46.0792 40.4904 47.5858C41.3602 49.0924 40.844 51.0189 39.3374 51.8888C37.8308 52.7586 35.9043 52.2424 35.0344 50.7358Z" fill="#000000" fill-opacity="1.000000" fill-rule="evenodd"/>
		<path id="Vector" d="M22.8375 23.3099L16.8375 12.9176" stroke="#000000" stroke-opacity="1.000000" stroke-width="0.900000" stroke-linecap="round"/>
		<path id="Vector" d="M18.3655 9.26424C19.2353 10.7709 18.7191 12.6974 17.2125 13.5672C15.7059 14.4371 13.7794 13.9209 12.9095 12.4142C12.0397 10.9076 12.5559 8.98111 14.0625 8.11127C15.5691 7.24142 17.4956 7.75762 18.3655 9.26424Z" fill="#000000" fill-opacity="1.000000" fill-rule="evenodd"/>
		<path id="Vector" d="M33.39 33.8625L43.7823 39.8625" stroke="#000000" stroke-opacity="1.000000" stroke-width="0.900000" stroke-linecap="round"/>
		<path id="Vector" d="M44.2858 43.7905C42.7792 42.9206 42.2629 40.9941 43.1328 39.4875C44.0026 37.9809 45.9292 37.4647 47.4358 38.3345C48.9424 39.2043 49.4586 41.1309 48.5888 42.6375C47.7189 44.1441 45.7924 44.6603 44.2858 43.7905Z" fill="#000000" fill-opacity="1.000000" fill-rule="evenodd"/>
		<path id="Vector" d="M20.0099 26.1375L9.61755 20.1375" stroke="#000000" stroke-opacity="1.000000" stroke-width="0.900000" stroke-linecap="round"/>
		<path id="Vector" d="M9.11415 16.2095C10.6208 17.0794 11.137 19.0059 10.2671 20.5125C9.39729 22.0191 7.47078 22.5353 5.96416 21.6655C4.45753 20.7956 3.94133 18.8691 4.81118 17.3625C5.68102 15.8559 7.60753 15.3397 9.11415 16.2095Z" fill="#000000" fill-opacity="1.000000" fill-rule="evenodd"/>
		<path id="Vector" d="M43.1397 19.978L53.532 13.978" stroke="#CC9933" stroke-opacity="1.000000" stroke-width="0.900000" stroke-linecap="round"/>
		<path id="Vector" d="M57.1855 15.5059C55.6789 16.3758 53.7523 15.8596 52.8825 14.353C52.0126 12.8463 52.5289 10.9198 54.0355 10.05C55.5421 9.18014 57.4686 9.69634 58.3385 11.203C59.2083 12.7096 58.6921 14.6361 57.1855 15.5059Z" fill="#CC9933" fill-opacity="1.000000" fill-rule="evenodd"/>
		<path id="Vector" d="M19.9988 33.853L9.60645 39.853" stroke="#000000" stroke-opacity="1.000000" stroke-width="0.900000" stroke-linecap="round"/>
		<path id="Vector" d="M5.95298 38.325C7.4596 37.4551 9.38611 37.9713 10.256 39.478C11.1258 40.9846 10.6096 42.9111 9.10298 43.7809C7.59636 44.6508 5.66985 44.1346 4.8 42.628C3.93015 41.1213 4.44636 39.1948 5.95298 38.325Z" fill="#000000" fill-opacity="1.000000" fill-rule="evenodd"/>
		<path id="Vector" d="M30.562 23.0844L36.562 12.6921" stroke="#000000" stroke-opacity="1.000000" stroke-width="0.900000" stroke-linecap="round"/>
		<path id="Vector" d="M40.49 12.1887C39.6201 13.6953 37.6936 14.2115 36.187 13.3416C34.6804 12.4718 34.1641 10.5453 35.034 9.03866C35.9038 7.53204 37.8304 7.01583 39.337 7.88567C40.8436 8.75552 41.3598 10.682 40.49 12.1887Z" fill="#000000" fill-opacity="1.000000" fill-rule="evenodd"/>
		<path id="Vector" d="M22.837 36.4646L16.837 46.8569" stroke="#000000" stroke-opacity="1.000000" stroke-width="0.900000" stroke-linecap="round"/>
		<path id="Vector" d="M12.909 47.3603C13.7789 45.8537 15.7054 45.3375 17.212 46.2073C18.7186 47.0772 19.2348 49.0037 18.365 50.5103C17.4951 52.0169 15.5686 52.5331 14.062 51.6633C12.5554 50.7934 12.0392 48.8669 12.909 47.3603Z" fill="#000000" fill-opacity="1.000000" fill-rule="evenodd"/>
	</g>
</svg>
